<svg width="18" height="20" viewBox="0 0 20 22" fill="none" xmlns="http://www.w3.org/2000/svg">
  <path d="M6 9V5C6 3.93913 6.42143 2.92172 7.17157 2.17157C7.92172 1.42143 8.93913 1 10 1C11.0609 1 12.0783 1.42143 12.8284 2.17157C13.5786 2.92172 14 3.93913 14 5V9" stroke="#222222" stroke-linecap="round" stroke-linejoin="round" stroke-width="2"/>
  <path d="M3 9H17C18.1046 9 19 9.89543 19 11V19C19 20.1046 18.1046 21 17 21H3C1.89543 21 1 20.1046 1 19V11C1 9.89543 1.89543 9 3 9Z" stroke="#222222" stroke-linecap="round" stroke-linejoin="round" stroke-width="2"/>
  <path d="M10 15L13 12L10 9" stroke="#222222" stroke-linecap="round" stroke-linejoin="round" stroke-width="2"/>
  <path d="M13 12H7" stroke="#222222" stroke-linecap="round" stroke-linejoin="round" stroke-width="2"/>
</svg>
