<svg width="90" height="90" viewBox="0 0 90 90" fill="none" xmlns="http://www.w3.org/2000/svg">
  <!-- Background Circle -->
  <circle cx="45" cy="45" r="45" fill="#E3F4FE"/>
  
  <!-- Receipt Icon Group -->
  <g transform="translate(20, 20)">
    <!-- Main Receipt Shape -->
    <path d="M23.7135 0.697348C22.263 -0.357339 20.2578 -0.201089 18.9896 1.06714L17.4271 2.62964C17.237 2.81974 16.9323 2.83537 16.7266 2.66089L15.3542 1.52026C12.9792 -0.458902 9.375 1.2286 9.375 4.31974V38.0177C9.375 43.226 7.74219 44.7885 5.72917 44.7885H35.9427C40.8333 44.7885 44.7917 40.8223 44.7917 35.9343V4.31974C44.7917 1.2286 41.1875 -0.458902 38.8125 1.51766L37.4401 2.66089C37.2344 2.83537 36.9297 2.81974 36.7396 2.62964L35.1771 1.06714C33.9089 -0.201089 31.9036 -0.357339 30.4531 0.697348L27.3906 2.92651C27.2083 3.05933 26.9583 3.05933 26.776 2.92651L23.7135 0.697348Z" fill="#71B3EF"/>
    
    <!-- Line 1 -->
    <path d="M18.75 25.0098C17.888 25.0098 17.1875 24.3093 17.1875 23.4473C17.1875 22.5854 17.888 21.8848 18.75 21.8848H35.4167C36.2786 21.8848 36.9792 22.5828 36.9792 23.4473C36.9792 24.3119 36.2786 25.0098 35.4167 25.0098H18.75Z" fill="#1473CF"/>
    
    <!-- Line 2 -->
    <path d="M22.9167 17.7208C22.0547 17.7208 21.3542 17.0203 21.3542 16.1583C21.3542 15.2963 22.0547 14.5958 22.9167 14.5958H31.25C32.112 14.5958 32.8125 15.2937 32.8125 16.1583C32.8125 17.0229 32.112 17.7208 31.25 17.7208H22.9167Z" fill="#1473CF"/>
    
    <!-- Line 3 -->
    <path d="M20.8333 32.2989C19.9714 32.2989 19.2708 31.5984 19.2708 30.7364C19.2708 29.8744 19.9714 29.1739 20.8333 29.1739H33.3333C34.1953 29.1739 34.8958 29.8718 34.8958 30.7364C34.8958 31.601 34.1953 32.2989 33.3333 32.2989H20.8333Z" fill="#1473CF"/>
    
    <!-- Bottom Section -->
    <path d="M2.60417 22.9239H9.375V38.0177C9.375 43.0619 7.84375 44.6869 5.91667 44.7833C2.61979 44.6114 -7.94729e-08 41.8822 -7.94729e-08 38.5437V25.5281C-7.94729e-08 24.0906 1.16667 22.9239 2.60417 22.9239Z" fill="#1473CF"/>
    
    <!-- Small Detail -->
    <path d="M6.25 44.7937C6.32552 44.7937 6.40104 44.7911 6.47917 44.7885H6.02344C6.09896 44.7911 6.17448 44.7937 6.2526 44.7937H6.25Z" fill="#1473CF"/>
  </g>
</svg>
