<svg width="40" height="40" viewBox="0 0 40 40" fill="none" xmlns="http://www.w3.org/2000/svg">
  <circle cx="20" cy="20" r="20" fill="#E3F4FE"/>
  <g transform="translate(7, 7)">
    <svg width="26" height="21" viewBox="0 0 45 39" fill="none">
      <g id="ticket 2">
        <path d="M8.85417 0C3.96354 0 0 3.96354 0 8.85417V14.1667C0 14.9089 0.523438 15.5495 1.2526 15.6979C2.91406 16.0365 4.16667 17.5078 4.16667 19.2708C4.16667 21.0339 2.91406 22.5052 1.2526 22.8438C0.523438 22.9922 0 23.6328 0 24.375V29.6875C0 34.5781 3.96354 38.5417 8.85417 38.5417H35.9375C40.8281 38.5417 44.7917 34.5781 44.7917 29.6875V24.375C44.7917 23.6328 44.2682 22.9922 43.5391 22.8438C41.8776 22.5052 40.625 21.0339 40.625 19.2708C40.625 17.5078 41.8776 16.0365 43.5391 15.6979C44.2682 15.5495 44.7917 14.9089 44.7917 14.1667V8.85417C44.7917 3.96354 40.8281 0 35.9375 0H8.85417Z" fill="#2D68FF" opacity="0.4"/>
        <path clip-rule="evenodd" d="M30.2083 1.58946e-07V9.3099C30.2083 10.1719 29.5078 10.8724 28.6458 10.8724C27.7839 10.8724 27.0833 10.1719 27.0833 9.3099V1.58946e-07H30.2083ZM28.6458 14.388C29.5078 14.388 30.2083 15.0885 30.2083 15.9505V22.5911C30.2083 23.4531 29.5078 24.1536 28.6458 24.1536C27.7839 24.1536 27.0833 23.4531 27.0833 22.5911V15.9505C27.0833 15.0885 27.7839 14.388 28.6458 14.388ZM28.6458 27.6693C29.5078 27.6693 30.2083 28.3698 30.2083 29.2318V38.5417H27.0833V29.2318C27.0833 28.3698 27.7839 27.6693 28.6458 27.6693Z" fill="#2D68FF" fill-rule="evenodd"/>
      </g>
    </svg>
  </g>
</svg>
